<svg xmlns="http://www.w3.org/2000/svg" xmlns:xlink="http://www.w3.org/1999/xlink" version="1.1" x="0px" y="0px" viewBox="0 0 100 100" enable-background="new 0 0 100 100" xml:space="preserve"><path fill="#000000" d="M79,22.2v57.5c0,2.9-2.4,5.2-5.2,5.2H29.3c-2.9,0-5.3-2.4-5.3-5.2V79c0-1.1,0.9-2,2-2s2,0.9,2,2v0.7  c0,0.7,0.6,1.2,1.3,1.2h44.5c0.7,0,1.2-0.6,1.2-1.2V22.2c0-0.7-0.6-1.2-1.2-1.2H29.3c-0.7,0-1.3,0.6-1.3,1.2v28.8c0,1.1-0.9,2-2,2  s-2-0.9-2-2V22.2c0-2.9,2.4-5.2,5.3-5.2h44.5C76.6,17,79,19.4,79,22.2z M24.8,67c0-0.1,0-0.1,0-0.2c0,0,0-0.1,0-0.1  c0-0.2,0.1-0.4,0.1-0.5c0,0,0,0,0,0l7-15.6V27c0-1.1,0.9-2,2-2h35c1.1,0,2,0.9,2,2v24v24c0,0.2,0,0.3-0.1,0.4c0,0,0,0.1,0,0.1  c0,0.1-0.1,0.2-0.1,0.3c0,0,0,0.1-0.1,0.1c0,0.1-0.1,0.2-0.2,0.2c0,0-0.1,0.1-0.1,0.1c-0.1,0.1-0.1,0.1-0.2,0.2c0,0,0,0.1-0.1,0.1  c0,0,0,0,0,0c-0.1,0.1-0.3,0.2-0.5,0.3c0,0-0.1,0-0.1,0C69.4,77,69.2,77,69,77H34c-0.2,0-0.5,0-0.7-0.1c-6.9-2.4-8.4-9.1-8.5-9.5  C24.8,67.3,24.8,67.1,24.8,67z M29.9,65h30.8l5.2-12H35.3L29.9,65z M34.4,73H62c-1.1-1.3-1.7-2.8-2-4H29.8  C30.6,70.4,32,72.1,34.4,73z M36,49h31V29H36V49z"></path></svg>