<svg height='100px' width='100px'  fill="#000000" xmlns:dc="http://purl.org/dc/elements/1.1/" xmlns:cc="http://creativecommons.org/ns#" xmlns:rdf="http://www.w3.org/1999/02/22-rdf-syntax-ns#" xmlns:svg="http://www.w3.org/2000/svg" xmlns="http://www.w3.org/2000/svg" xmlns:sodipodi="http://sodipodi.sourceforge.net/DTD/sodipodi-0.dtd" xmlns:inkscape="http://www.inkscape.org/namespaces/inkscape" viewBox="0 0 26.458333 26.458334" version="1.1" x="0px" y="0px"><title>Emoji joy</title><g transform="translate(0,-270.54165)"><path style="color:#000000;font-style:normal;font-variant:normal;font-weight:normal;font-stretch:normal;font-size:medium;line-height:normal;font-family:sans-serif;font-variant-ligatures:normal;font-variant-position:normal;font-variant-caps:normal;font-variant-numeric:normal;font-variant-alternates:normal;font-feature-settings:normal;text-indent:0;text-align:start;text-decoration:none;text-decoration-line:none;text-decoration-style:solid;text-decoration-color:#000000;letter-spacing:normal;word-spacing:normal;text-transform:none;writing-mode:lr-tb;direction:ltr;text-orientation:mixed;dominant-baseline:auto;baseline-shift:baseline;text-anchor:start;white-space:normal;shape-padding:0;clip-rule:nonzero;display:inline;overflow:visible;visibility:visible;opacity:1;isolation:auto;mix-blend-mode:normal;color-interpolation:sRGB;color-interpolation-filters:linearRGB;solid-color:#000000;solid-opacity:1;vector-effect:none;fill:#000000;fill-opacity:1;fill-rule:nonzero;stroke:none;stroke-width:0.26499999;stroke-linecap:round;stroke-linejoin:round;stroke-miterlimit:4;stroke-dasharray:none;stroke-dashoffset:0;stroke-opacity:1;paint-order:markers stroke fill;color-rendering:auto;image-rendering:auto;shape-rendering:auto;text-rendering:auto;enable-background:accumulate" d="m 9.7572252,284.37414 c -1.6158563,2e-5 -2.8807715,0.82091 -2.8807715,0.82091 -0.5826242,0.36891 -0.029282,1.24233 0.5533345,0.87343 0,0 1.0659681,-0.65937 2.327437,-0.65937 1.2614688,0 2.3284468,0.65937 2.3284468,0.65937 0.582624,0.3689 1.135958,-0.50452 0.553335,-0.87343 0,0 -1.265922,-0.82091 -2.8817818,-0.82091 z m 8.5716448,0 c -1.61587,2e-5 -2.881793,0.82091 -2.881793,0.82091 -0.582624,0.36891 -0.02928,1.24233 0.553334,0.87343 0,0 1.066979,-0.65937 2.328459,-0.65937 1.261469,0 2.327435,0.65937 2.327435,0.65937 0.582624,0.3689 1.135959,-0.50452 0.553334,-0.87343 0,0 -1.264914,-0.82091 -2.880769,-0.82091 z m -7.167105,6.64102 c -0.655233,0 -0.675112,1.02993 0,1.02993 h 5.758513 c 0.747371,0.0632 0.747371,-1.09302 0,-1.02993 z"></path><path style="color:#000000;font-style:normal;font-variant:normal;font-weight:normal;font-stretch:normal;font-size:medium;line-height:normal;font-family:sans-serif;font-variant-ligatures:normal;font-variant-position:normal;font-variant-caps:normal;font-variant-numeric:normal;font-variant-alternates:normal;font-feature-settings:normal;text-indent:0;text-align:start;text-decoration:none;text-decoration-line:none;text-decoration-style:solid;text-decoration-color:#000000;letter-spacing:normal;word-spacing:normal;text-transform:none;writing-mode:lr-tb;direction:ltr;text-orientation:mixed;dominant-baseline:auto;baseline-shift:baseline;text-anchor:start;white-space:normal;shape-padding:0;clip-rule:nonzero;display:inline;overflow:visible;visibility:visible;opacity:1;isolation:auto;mix-blend-mode:normal;color-interpolation:sRGB;color-interpolation-filters:linearRGB;solid-color:#000000;solid-opacity:1;vector-effect:none;fill:#000000;fill-opacity:1;fill-rule:nonzero;stroke:none;stroke-width:0.52916676;stroke-linecap:round;stroke-linejoin:miter;stroke-miterlimit:4;stroke-dasharray:none;stroke-dashoffset:0;stroke-opacity:1;color-rendering:auto;image-rendering:auto;shape-rendering:auto;text-rendering:auto;enable-background:accumulate" d="m 13.229167,271.86441 c -6.569235,0 -11.9067712,5.3344 -11.9067712,11.90449 0,6.5701 5.3375362,11.90833 11.9067712,11.90833 6.569233,0 11.906771,-5.33823 11.906771,-11.90833 0,-6.57009 -5.337538,-11.90449 -11.906771,-11.90449 z m 0,1.03565 c 6.009725,0 10.871233,4.85835 10.871233,10.86884 0,6.01051 -4.861508,10.87264 -10.871233,10.87264 -6.0097265,0 -10.8712336,-4.86213 -10.8712336,-10.87264 0,-6.01049 4.8615071,-10.86884 10.8712336,-10.86884 z"></path></g></svg>