<svg xmlns="http://www.w3.org/2000/svg" xmlns:xlink="http://www.w3.org/1999/xlink" version="1.1" x="0px" y="0px" viewBox="0 0 100 100" enable-background="new 0 0 100 100" xml:space="preserve"><path fill="#000000" d="M34,77h35c1.1,0,2-0.9,2-2V51V27c0-0.2,0-0.3-0.1-0.4c0,0,0-0.1,0-0.1c0-0.1-0.1-0.2-0.1-0.3  c0,0,0-0.1-0.1-0.1c0-0.1-0.1-0.2-0.2-0.2c0,0-0.1-0.1-0.1-0.1c-0.1-0.1-0.1-0.1-0.2-0.2c0,0,0-0.1-0.1-0.1c0,0,0,0,0,0  c-0.2-0.2-0.5-0.3-0.8-0.3c0,0-0.1,0-0.1,0c-0.1,0-0.2,0-0.2,0H34c-0.2,0-0.5,0-0.7,0.1c-6.9,2.4-8.4,9.1-8.5,9.5c0,0.1,0,0.3,0,0.4  c0,0.1,0,0.1,0,0.2c0,0,0,0.1,0,0.1c0,0.2,0.1,0.4,0.1,0.5c0,0,0,0,0,0l7,15.6V75C32,76.1,32.9,77,34,77z M60.7,37l5.2,12H35.3  l-5.4-12H60.7z M67,73H36V53h31V73z M34.4,29H62c-1.1,1.3-1.7,2.8-2,4H29.8C30.6,31.6,32,29.9,34.4,29z M79,22.2v57.5  c0,2.9-2.4,5.2-5.2,5.2H29.3c-2.9,0-5.3-2.4-5.3-5.2V50.9c0-1.1,0.9-2,2-2s2,0.9,2,2v28.8c0,0.7,0.6,1.2,1.3,1.2h44.5  c0.7,0,1.2-0.6,1.2-1.2V22.2c0-0.7-0.6-1.2-1.2-1.2H29.3c-0.7,0-1.3,0.6-1.3,1.2V23c0,1.1-0.9,2-2,2s-2-0.9-2-2v-0.7  c0-2.9,2.4-5.2,5.3-5.2h44.5C76.6,17,79,19.4,79,22.2z"></path></svg>