<svg height='100px' width='100px'  fill="#000000" xmlns:dc="http://purl.org/dc/elements/1.1/" xmlns:cc="http://creativecommons.org/ns#" xmlns:rdf="http://www.w3.org/1999/02/22-rdf-syntax-ns#" xmlns:svg="http://www.w3.org/2000/svg" xmlns="http://www.w3.org/2000/svg" xmlns:sodipodi="http://sodipodi.sourceforge.net/DTD/sodipodi-0.dtd" xmlns:inkscape="http://www.inkscape.org/namespaces/inkscape" viewBox="0 0 26.458333 26.458334" version="1.1" x="0px" y="0px"><title>Emoji happy</title><g transform="translate(0,-270.54165)"><path style="color:#000000;font-style:normal;font-variant:normal;font-weight:normal;font-stretch:normal;font-size:medium;line-height:normal;font-family:sans-serif;font-variant-ligatures:normal;font-variant-position:normal;font-variant-caps:normal;font-variant-numeric:normal;font-variant-alternates:normal;font-feature-settings:normal;text-indent:0;text-align:start;text-decoration:none;text-decoration-line:none;text-decoration-style:solid;text-decoration-color:#000000;letter-spacing:normal;word-spacing:normal;text-transform:none;writing-mode:lr-tb;direction:ltr;text-orientation:mixed;dominant-baseline:auto;baseline-shift:baseline;text-anchor:start;white-space:normal;shape-padding:0;clip-rule:nonzero;display:inline;overflow:visible;visibility:visible;opacity:1;isolation:auto;mix-blend-mode:normal;color-interpolation:sRGB;color-interpolation-filters:linearRGB;solid-color:#000000;solid-opacity:1;vector-effect:none;fill:#000000;fill-opacity:1;fill-rule:nonzero;stroke:none;stroke-width:0.26499999;stroke-linecap:round;stroke-linejoin:round;stroke-miterlimit:4;stroke-dasharray:none;stroke-dashoffset:0;stroke-opacity:1;paint-order:markers stroke fill;color-rendering:auto;image-rendering:auto;shape-rendering:auto;text-rendering:auto;enable-background:accumulate" d="m 8.9492976,280.29918 c -1.6448072,-0.0262 -3.1206395,1.59148 -3.1206395,3.47086 0,0.23493 0.017402,0.43518 0.076704,0.62573 0.2051085,0.49175 0.4925749,0.57804 0.9729294,0.60255 0.7216048,-0.14591 1.4110869,-0.6981 2.0710064,-0.71354 0.7838517,0.10135 1.4023581,0.50475 2.0710081,0.71354 0.528973,0.0529 0.731244,-0.20852 0.972929,-0.60255 0.05922,-0.19061 0.0767,-0.3908 0.0767,-0.62573 -0.07972,-1.91012 -1.475833,-3.44479 -3.1206411,-3.47086 z m 8.5686404,0 c -1.644807,-0.0262 -3.12064,1.59148 -3.12064,3.47086 0,0.23493 0.01641,0.43518 0.07569,0.62573 0.205109,0.49175 0.492577,0.57804 0.97293,0.60255 0.721606,-0.14591 1.412096,-0.6981 2.072016,-0.71354 0.783844,0.10135 1.402351,0.50475 2.071,0.71354 0.528973,0.0529 0.731246,-0.20852 0.972931,-0.60255 0.05921,-0.19061 0.0757,-0.3908 0.0757,-0.62573 -0.07972,-1.91012 -1.474822,-3.44479 -3.119624,-3.47086 z m -8.5686404,1.02944 c 1.0750464,0 2.0710084,0.91202 2.0710084,2.58978 -0.718105,-0.31655 -1.3948846,-0.65417 -2.0710084,-0.66712 -0.7580399,-0.006 -1.5437472,0.41529 -2.0750439,0.66409 0,-1.68719 1.0000001,-2.58675 2.0750439,-2.58675 z m 8.5686404,0 c 1.075039,0 2.071,0.91202 2.071,2.58978 -0.718103,-0.31655 -1.394876,-0.65417 -2.071,-0.66712 -0.75804,-0.006 -1.544758,0.41529 -2.076053,0.66409 0,-1.68719 1.001009,-2.58675 2.076053,-2.58675 z m -1.962006,9.01366 c 0,0 -1.06547,0.66005 -2.32635,0.66005 -1.260881,0 -2.32736,-0.66005 -2.32736,-0.66005 -0.661295,-0.35855 -1.0754907,0.58213 -0.553075,0.87401 0,0 1.265331,0.81954 2.880435,0.81954 1.615102,0 2.879427,-0.81954 2.879425,-0.81954 0.456037,-0.2833 0.118168,-1.20841 -0.553075,-0.87401 z"></path><path style="color:#000000;font-style:normal;font-variant:normal;font-weight:normal;font-stretch:normal;font-size:medium;line-height:normal;font-family:sans-serif;font-variant-ligatures:normal;font-variant-position:normal;font-variant-caps:normal;font-variant-numeric:normal;font-variant-alternates:normal;font-feature-settings:normal;text-indent:0;text-align:start;text-decoration:none;text-decoration-line:none;text-decoration-style:solid;text-decoration-color:#000000;letter-spacing:normal;word-spacing:normal;text-transform:none;writing-mode:lr-tb;direction:ltr;text-orientation:mixed;dominant-baseline:auto;baseline-shift:baseline;text-anchor:start;white-space:normal;shape-padding:0;clip-rule:nonzero;display:inline;overflow:visible;visibility:visible;opacity:1;isolation:auto;mix-blend-mode:normal;color-interpolation:sRGB;color-interpolation-filters:linearRGB;solid-color:#000000;solid-opacity:1;vector-effect:none;fill:#000000;fill-opacity:1;fill-rule:nonzero;stroke:none;stroke-width:0.52916676;stroke-linecap:round;stroke-linejoin:miter;stroke-miterlimit:4;stroke-dasharray:none;stroke-dashoffset:0;stroke-opacity:1;color-rendering:auto;image-rendering:auto;shape-rendering:auto;text-rendering:auto;enable-background:accumulate" d="m 13.229167,271.86441 c -6.5692351,0 -11.9067714,5.3344 -11.9067714,11.90449 0,6.5701 5.3375363,11.90833 11.9067714,11.90833 6.569233,0 11.906771,-5.33823 11.906771,-11.90833 0,-6.57009 -5.337538,-11.90449 -11.906771,-11.90449 z m 0,1.03565 c 6.009725,0 10.871233,4.85835 10.871233,10.86884 0,6.01051 -4.861508,10.87264 -10.871233,10.87264 -6.0097266,0 -10.8712337,-4.86213 -10.8712337,-10.87264 0,-6.01049 4.8615071,-10.86884 10.8712337,-10.86884 z"></path></g></svg>