<svg height='100px' width='100px'  fill="#000000" xmlns:dc="http://purl.org/dc/elements/1.1/" xmlns:cc="http://creativecommons.org/ns#" xmlns:rdf="http://www.w3.org/1999/02/22-rdf-syntax-ns#" xmlns:svg="http://www.w3.org/2000/svg" xmlns="http://www.w3.org/2000/svg" xmlns:sodipodi="http://sodipodi.sourceforge.net/DTD/sodipodi-0.dtd" xmlns:inkscape="http://www.inkscape.org/namespaces/inkscape" viewBox="0 0 26.458333 26.458334" version="1.1" x="0px" y="0px"><title>Emoji look down</title><g transform="translate(0,-270.54165)"><path style="color:#000000;font-style:normal;font-variant:normal;font-weight:normal;font-stretch:normal;font-size:medium;line-height:normal;font-family:sans-serif;font-variant-ligatures:normal;font-variant-position:normal;font-variant-caps:normal;font-variant-numeric:normal;font-variant-alternates:normal;font-feature-settings:normal;text-indent:0;text-align:start;text-decoration:none;text-decoration-line:none;text-decoration-style:solid;text-decoration-color:#000000;letter-spacing:normal;word-spacing:normal;text-transform:none;writing-mode:lr-tb;direction:ltr;text-orientation:mixed;dominant-baseline:auto;baseline-shift:baseline;text-anchor:start;white-space:normal;shape-padding:0;clip-rule:nonzero;display:inline;overflow:visible;visibility:visible;opacity:1;isolation:auto;mix-blend-mode:normal;color-interpolation:sRGB;color-interpolation-filters:linearRGB;solid-color:#000000;solid-opacity:1;vector-effect:none;fill:#000000;fill-opacity:1;fill-rule:nonzero;stroke:none;stroke-width:0.26458332;stroke-linecap:round;stroke-linejoin:round;stroke-miterlimit:4;stroke-dasharray:none;stroke-dashoffset:0;stroke-opacity:1;paint-order:markers stroke fill;color-rendering:auto;image-rendering:auto;shape-rendering:auto;text-rendering:auto;enable-background:accumulate" d="m 8.9454491,285.46356 c -1.7552892,0 -3.1207248,1.59554 -3.1207252,3.47499 -1.2e-6,1.87944 1.365435,3.47195 3.1207252,3.47195 1.7552879,0 3.1237529,-1.59251 3.1237529,-3.47195 0,-1.87945 -1.368465,-3.47499 -3.1237529,-3.47499 z m 8.5638249,0.0156 c -1.755287,0 -3.120724,1.59251 -3.120724,3.47195 -2e-6,1.87945 1.365437,3.47499 3.120724,3.47499 1.755291,0 3.119716,-1.59554 3.119716,-3.47499 0,-1.87944 -1.364425,-3.47195 -3.119716,-3.47195 z m -8.5638249,1.01837 c 1.1207719,0 2.0902389,1.05371 2.0902389,2.44148 0,1.38775 -0.969467,2.43744 -2.0902389,2.43744 -1.1207741,0 -2.0872126,-1.04969 -2.0872122,-2.43744 0,-1.38777 0.9664381,-2.44148 2.0872122,-2.44148 z m 8.5638249,0.0117 c 1.120775,0 2.086204,1.05371 2.086204,2.44147 0,1.38775 -0.965429,2.44048 -2.086204,2.44048 -1.120772,0 -2.087213,-1.05273 -2.087211,-2.44048 0,-1.38776 0.966439,-2.44147 2.087211,-2.44147 z"></path><path style="color:#000000;font-style:normal;font-variant:normal;font-weight:normal;font-stretch:normal;font-size:medium;line-height:normal;font-family:sans-serif;font-variant-ligatures:normal;font-variant-position:normal;font-variant-caps:normal;font-variant-numeric:normal;font-variant-alternates:normal;font-feature-settings:normal;text-indent:0;text-align:start;text-decoration:none;text-decoration-line:none;text-decoration-style:solid;text-decoration-color:#000000;letter-spacing:normal;word-spacing:normal;text-transform:none;writing-mode:lr-tb;direction:ltr;text-orientation:mixed;dominant-baseline:auto;baseline-shift:baseline;text-anchor:start;white-space:normal;shape-padding:0;clip-rule:nonzero;display:inline;overflow:visible;visibility:visible;opacity:1;isolation:auto;mix-blend-mode:normal;color-interpolation:sRGB;color-interpolation-filters:linearRGB;solid-color:#000000;solid-opacity:1;vector-effect:none;fill:#000000;fill-opacity:1;fill-rule:nonzero;stroke:none;stroke-width:0.52916676;stroke-linecap:round;stroke-linejoin:miter;stroke-miterlimit:4;stroke-dasharray:none;stroke-dashoffset:0;stroke-opacity:1;color-rendering:auto;image-rendering:auto;shape-rendering:auto;text-rendering:auto;enable-background:accumulate" d="m 13.229167,271.86441 c -6.5692353,0 -11.9067715,5.3344 -11.9067715,11.90449 0,6.5701 5.3375362,11.90833 11.9067715,11.90833 6.569233,0 11.906771,-5.33823 11.906771,-11.90833 0,-6.57009 -5.337538,-11.90449 -11.906771,-11.90449 z m 0,1.03565 c 6.009725,0 10.871233,4.85835 10.871233,10.86884 0,6.01051 -4.861508,10.87264 -10.871233,10.87264 -6.0097268,0 -10.8712339,-4.86213 -10.8712339,-10.87264 0,-6.01049 4.8615071,-10.86884 10.8712339,-10.86884 z"></path></g></svg>