<svg height='100px' width='100px'  fill="#000000" xmlns:dc="http://purl.org/dc/elements/1.1/" xmlns:cc="http://creativecommons.org/ns#" xmlns:rdf="http://www.w3.org/1999/02/22-rdf-syntax-ns#" xmlns:svg="http://www.w3.org/2000/svg" xmlns="http://www.w3.org/2000/svg" xmlns:sodipodi="http://sodipodi.sourceforge.net/DTD/sodipodi-0.dtd" xmlns:inkscape="http://www.inkscape.org/namespaces/inkscape" viewBox="0 0 26.458333 26.458334" version="1.1" x="0px" y="0px"><title>Emoji look up</title><g transform="translate(0,-270.54165)"><path style="color:#000000;font-style:normal;font-variant:normal;font-weight:normal;font-stretch:normal;font-size:medium;line-height:normal;font-family:sans-serif;font-variant-ligatures:normal;font-variant-position:normal;font-variant-caps:normal;font-variant-numeric:normal;font-variant-alternates:normal;font-feature-settings:normal;text-indent:0;text-align:start;text-decoration:none;text-decoration-line:none;text-decoration-style:solid;text-decoration-color:#000000;letter-spacing:normal;word-spacing:normal;text-transform:none;writing-mode:lr-tb;direction:ltr;text-orientation:mixed;dominant-baseline:auto;baseline-shift:baseline;text-anchor:start;white-space:normal;shape-padding:0;clip-rule:nonzero;display:inline;overflow:visible;visibility:visible;opacity:1;isolation:auto;mix-blend-mode:normal;color-interpolation:sRGB;color-interpolation-filters:linearRGB;solid-color:#000000;solid-opacity:1;vector-effect:none;fill:#000000;fill-opacity:1;fill-rule:nonzero;stroke:none;stroke-width:0.5291667;stroke-linecap:round;stroke-linejoin:round;stroke-miterlimit:4;stroke-dasharray:none;stroke-dashoffset:0;stroke-opacity:1;paint-order:markers stroke fill;color-rendering:auto;image-rendering:auto;shape-rendering:auto;text-rendering:auto;enable-background:accumulate" d="m 8.9487652,275.56429 c -0.6174904,1.9e-4 -1.283966,0.14104 -1.7815876,0.50673 -0.6460794,0.47467 -1.1615968,1.22486 -1.320293,2.01071 -0.172008,0.8518 -0.048283,1.86889 0.4734079,2.56387 0.5886084,0.78412 1.6480092,1.32002 2.6284727,1.3203 0.9673818,2.7e-4 2.0088418,-0.53091 2.5941538,-1.30112 0.531611,-0.69955 0.672283,-1.7242 0.506717,-2.58707 -0.149427,-0.77874 -0.651785,-1.52672 -1.289001,-1.99862 -0.50465,-0.37374 -1.183898,-0.51495 -1.8118698,-0.5148 z m 8.6101668,0 c -0.617491,1.9e-4 -1.283966,0.14104 -1.781588,0.50673 -0.646079,0.47467 -1.160601,1.22486 -1.319284,2.01071 -0.172008,0.8518 -0.0493,1.86891 0.472399,2.56387 0.588622,0.78412 1.648009,1.31973 2.628473,1.3203 0.968521,5.6e-4 2.008868,-0.53255 2.598194,-1.30112 0.525224,-0.685 0.67564,-1.68781 0.518829,-2.53662 -0.147084,-0.79616 -0.65489,-1.56538 -1.304142,-2.04907 -0.503577,-0.3752 -1.18491,-0.51495 -1.812881,-0.5148 z m -8.6101668,1.03363 c 0.4217085,-6.7e-4 0.8821554,0.0803 1.2203628,0.33211 0.440644,0.32821 0.772139,0.85939 0.870101,1.40003 0.106357,0.587 0.01338,1.28215 -0.35127,1.75432 -0.394193,0.51046 -1.094238,0.8491 -1.7391938,0.84791 -0.6602912,-0.001 -1.377652,-0.3487 -1.7775503,-0.87414 -0.3519526,-0.46243 -0.4340753,-1.14214 -0.325026,-1.71295 0.1047948,-0.54855 0.4485399,-1.08281 0.8973548,-1.41517 0.3349588,-0.24806 0.7884195,-0.33144 1.2052215,-0.33211 z m 8.6101668,0 c 0.421708,-8.4e-4 0.882919,0.0805 1.221374,0.33211 0.441506,0.32817 0.774517,0.85882 0.873129,1.40003 0.106944,0.58688 0.01465,1.2823 -0.35026,1.75432 -0.395112,0.5112 -1.098146,0.84937 -1.744243,0.84791 -0.660292,-0.001 -1.377437,-0.34888 -1.777551,-0.87414 -0.350628,-0.46028 -0.432218,-1.13647 -0.324017,-1.70488 0.104971,-0.55142 0.449516,-1.0889 0.900384,-1.42324 0.33381,-0.24754 0.785606,-0.33126 1.201184,-0.33211 z m -4.329309,9.22894 c -1.011831,0 -2.915142,0.14845 -2.915142,0.14845 -0.717148,0.024 -0.6361563,1.11244 0.07672,1.0306 0,0 1.930969,-0.14532 2.838428,-0.14532 0.907456,0 2.837418,0.14532 2.837418,0.14532 0.707733,0.0783 0.792094,-0.99861 0.08075,-1.0306 -1.017845,-0.0314 -2.046486,-0.14075 -2.918174,-0.14845 z"></path><path style="color:#000000;font-style:normal;font-variant:normal;font-weight:normal;font-stretch:normal;font-size:medium;line-height:normal;font-family:sans-serif;font-variant-ligatures:normal;font-variant-position:normal;font-variant-caps:normal;font-variant-numeric:normal;font-variant-alternates:normal;font-feature-settings:normal;text-indent:0;text-align:start;text-decoration:none;text-decoration-line:none;text-decoration-style:solid;text-decoration-color:#000000;letter-spacing:normal;word-spacing:normal;text-transform:none;writing-mode:lr-tb;direction:ltr;text-orientation:mixed;dominant-baseline:auto;baseline-shift:baseline;text-anchor:start;white-space:normal;shape-padding:0;clip-rule:nonzero;display:inline;overflow:visible;visibility:visible;opacity:1;isolation:auto;mix-blend-mode:normal;color-interpolation:sRGB;color-interpolation-filters:linearRGB;solid-color:#000000;solid-opacity:1;vector-effect:none;fill:#000000;fill-opacity:1;fill-rule:nonzero;stroke:none;stroke-width:0.52916676;stroke-linecap:round;stroke-linejoin:miter;stroke-miterlimit:4;stroke-dasharray:none;stroke-dashoffset:0;stroke-opacity:1;color-rendering:auto;image-rendering:auto;shape-rendering:auto;text-rendering:auto;enable-background:accumulate" d="m 13.229167,271.86441 c -6.5692352,0 -11.9067714,5.3344 -11.9067714,11.90449 0,6.5701 5.3375362,11.90833 11.9067714,11.90833 6.569233,0 11.906771,-5.33823 11.906771,-11.90833 0,-6.57009 -5.337538,-11.90449 -11.906771,-11.90449 z m 0,1.03565 c 6.009725,0 10.871233,4.85835 10.871233,10.86884 0,6.01051 -4.861508,10.87264 -10.871233,10.87264 -6.0097267,0 -10.8712338,-4.86213 -10.8712338,-10.87264 0,-6.01049 4.8615071,-10.86884 10.8712338,-10.86884 z"></path></g></svg>