<svg height='100px' width='100px'  fill="#000000" xmlns:dc="http://purl.org/dc/elements/1.1/" xmlns:cc="http://creativecommons.org/ns#" xmlns:rdf="http://www.w3.org/1999/02/22-rdf-syntax-ns#" xmlns:svg="http://www.w3.org/2000/svg" xmlns="http://www.w3.org/2000/svg" xmlns:sodipodi="http://sodipodi.sourceforge.net/DTD/sodipodi-0.dtd" xmlns:inkscape="http://www.inkscape.org/namespaces/inkscape" viewBox="0 0 26.458333 26.458334" version="1.1" x="0px" y="0px"><title>Emoji look right</title><g transform="translate(0,-270.54165)"><path style="color:#000000;font-style:normal;font-variant:normal;font-weight:normal;font-stretch:normal;font-size:medium;line-height:normal;font-family:sans-serif;font-variant-ligatures:normal;font-variant-position:normal;font-variant-caps:normal;font-variant-numeric:normal;font-variant-alternates:normal;font-feature-settings:normal;text-indent:0;text-align:start;text-decoration:none;text-decoration-line:none;text-decoration-style:solid;text-decoration-color:#000000;letter-spacing:normal;word-spacing:normal;text-transform:none;writing-mode:lr-tb;direction:ltr;text-orientation:mixed;dominant-baseline:auto;baseline-shift:baseline;text-anchor:start;white-space:normal;shape-padding:0;clip-rule:nonzero;display:inline;overflow:visible;visibility:visible;opacity:1;isolation:auto;mix-blend-mode:normal;color-interpolation:sRGB;color-interpolation-filters:linearRGB;solid-color:#000000;solid-opacity:1;vector-effect:none;fill:#000000;fill-opacity:1;fill-rule:nonzero;stroke:none;stroke-width:0.26458329;stroke-linecap:round;stroke-linejoin:round;stroke-miterlimit:4;stroke-dasharray:none;stroke-dashoffset:0;stroke-opacity:1;paint-order:markers stroke fill;color-rendering:auto;image-rendering:auto;shape-rendering:auto;text-rendering:auto;enable-background:accumulate" d="m 12.085533,280.29522 c -1.755502,0 -3.1211218,1.59573 -3.1211198,3.4754 0,1.87967 1.3656178,3.47136 3.1211198,3.47136 1.755499,0 3.121101,-1.59169 3.121101,-3.47136 0,-1.87967 -1.365602,-3.4754 -3.121101,-3.4754 z m 7.919844,0.7096 c -1.404244,0 -2.479115,1.28106 -2.479115,2.7658 0,1.48475 1.074871,2.76174 2.479115,2.76174 1.404245,0 2.484162,-1.27699 2.484162,-2.76174 0,-1.48474 -1.079917,-2.7658 -2.484162,-2.7658 z m -7.919844,0.32401 c 1.120909,0 2.087464,1.05387 2.087464,2.44179 0,1.38794 -0.966557,2.44175 -2.087464,2.44175 -1.120909,0 -2.0864528,-1.05381 -2.0864548,-2.44175 0,-1.38792 0.9655458,-2.44179 2.0864548,-2.44179 z m 7.919844,0.70963 c 0.76576,0 1.450524,0.73586 1.450524,1.73216 0,0.9963 -0.684764,1.72811 -1.450524,1.72811 -0.765758,0 -1.445479,-0.73181 -1.445479,-1.72811 0,-0.9963 0.679721,-1.73216 1.445479,-1.73216 z m -0.560224,8.83941 c -1.850885,0.15411 -3.709386,0.30605 -5.562867,0.45827 -0.703246,0.0418 -0.616949,1.10225 0.08378,1.0296 l 5.528548,-0.45321 c 0.637479,-0.0507 0.630506,-1.0624 -0.04946,-1.03466 z"></path><path style="color:#000000;font-style:normal;font-variant:normal;font-weight:normal;font-stretch:normal;font-size:medium;line-height:normal;font-family:sans-serif;font-variant-ligatures:normal;font-variant-position:normal;font-variant-caps:normal;font-variant-numeric:normal;font-variant-alternates:normal;font-feature-settings:normal;text-indent:0;text-align:start;text-decoration:none;text-decoration-line:none;text-decoration-style:solid;text-decoration-color:#000000;letter-spacing:normal;word-spacing:normal;text-transform:none;writing-mode:lr-tb;direction:ltr;text-orientation:mixed;dominant-baseline:auto;baseline-shift:baseline;text-anchor:start;white-space:normal;shape-padding:0;clip-rule:nonzero;display:inline;overflow:visible;visibility:visible;opacity:1;isolation:auto;mix-blend-mode:normal;color-interpolation:sRGB;color-interpolation-filters:linearRGB;solid-color:#000000;solid-opacity:1;vector-effect:none;fill:#000000;fill-opacity:1;fill-rule:nonzero;stroke:none;stroke-width:0.52916676;stroke-linecap:round;stroke-linejoin:miter;stroke-miterlimit:4;stroke-dasharray:none;stroke-dashoffset:0;stroke-opacity:1;color-rendering:auto;image-rendering:auto;shape-rendering:auto;text-rendering:auto;enable-background:accumulate" d="m 13.229166,271.86441 c -6.5692339,0 -11.9067701,5.3344 -11.9067701,11.90449 0,6.5701 5.3375362,11.90833 11.9067701,11.90833 6.569233,0 11.906771,-5.33823 11.906771,-11.90833 0,-6.57009 -5.337538,-11.90449 -11.906771,-11.90449 z m 0,1.03565 c 6.009725,0 10.871233,4.85835 10.871233,10.86884 0,6.01051 -4.861508,10.87264 -10.871233,10.87264 -6.0097254,0 -10.8712325,-4.86213 -10.8712325,-10.87264 0,-6.01049 4.8615071,-10.86884 10.8712325,-10.86884 z"></path></g></svg>