<svg height='100px' width='100px'  fill="#000000" xmlns:dc="http://purl.org/dc/elements/1.1/" xmlns:cc="http://creativecommons.org/ns#" xmlns:rdf="http://www.w3.org/1999/02/22-rdf-syntax-ns#" xmlns:svg="http://www.w3.org/2000/svg" xmlns="http://www.w3.org/2000/svg" xmlns:sodipodi="http://sodipodi.sourceforge.net/DTD/sodipodi-0.dtd" xmlns:inkscape="http://www.inkscape.org/namespaces/inkscape" viewBox="0 0 26.458333 26.458334" version="1.1" x="0px" y="0px"><title>Emoji look left</title><g transform="translate(0,-270.54165)"><path style="color:#000000;font-style:normal;font-variant:normal;font-weight:normal;font-stretch:normal;font-size:medium;line-height:normal;font-family:sans-serif;font-variant-ligatures:normal;font-variant-position:normal;font-variant-caps:normal;font-variant-numeric:normal;font-variant-alternates:normal;font-feature-settings:normal;text-indent:0;text-align:start;text-decoration:none;text-decoration-line:none;text-decoration-style:solid;text-decoration-color:#000000;letter-spacing:normal;word-spacing:normal;text-transform:none;writing-mode:lr-tb;direction:ltr;text-orientation:mixed;dominant-baseline:auto;baseline-shift:baseline;text-anchor:start;white-space:normal;shape-padding:0;clip-rule:nonzero;display:inline;overflow:visible;visibility:visible;opacity:1;isolation:auto;mix-blend-mode:normal;color-interpolation:sRGB;color-interpolation-filters:linearRGB;solid-color:#000000;solid-opacity:1;vector-effect:none;fill:#000000;fill-opacity:1;fill-rule:nonzero;stroke:none;stroke-width:0.52916676;stroke-linecap:round;stroke-linejoin:miter;stroke-miterlimit:4;stroke-dasharray:none;stroke-dashoffset:0;stroke-opacity:1;color-rendering:auto;image-rendering:auto;shape-rendering:auto;text-rendering:auto;enable-background:accumulate" d="m 14.370837,280.29576 c -1.755409,0 -3.119934,1.59564 -3.119931,3.47522 0,1.87957 1.364522,3.47523 3.119931,3.47523 1.75541,0 3.120941,-1.59566 3.120941,-3.47523 0,-1.87958 -1.36553,-3.47522 -3.120941,-3.47522 z m -7.9234958,0.70958 c -1.4041715,0 -2.4789879,1.28099 -2.4789879,2.76564 0,1.48467 1.0748144,2.76161 2.4789879,2.76161 1.4041737,0 2.4799994,-1.27694 2.4799972,-2.76161 2.2e-6,-1.48465 -1.0758255,-2.76564 -2.4799972,-2.76564 z m 7.9234958,0.32399 c 1.120852,0 2.087357,1.0538 2.087357,2.44165 0,1.38786 -0.966505,2.44163 -2.087357,2.44163 -1.120851,0 -2.086346,-1.05377 -2.086346,-2.44163 0,-1.38785 0.965495,-2.44165 2.086346,-2.44165 z m -7.9234958,0.70958 c 0.7657192,0 1.4504503,0.73582 1.4504503,1.73207 0,0.99625 -0.6847311,1.72802 -1.4504503,1.72802 -0.7657191,0 -1.4494404,-0.73177 -1.4494404,-1.72802 0,-0.99625 0.6837213,-1.73207 1.4494404,-1.73207 z m 0.5460639,8.83898 c -0.6892246,-0.0229 -0.7235432,1.01169 -0.034319,1.03459 l 5.5272769,0.4532 c 0.700694,0.0727 0.786986,-0.98778 0.08378,-1.02955 -1.941297,-0.15837 -3.9124872,-0.32289 -5.5767379,-0.45824 z"></path><path style="color:#000000;font-style:normal;font-variant:normal;font-weight:normal;font-stretch:normal;font-size:medium;line-height:normal;font-family:sans-serif;font-variant-ligatures:normal;font-variant-position:normal;font-variant-caps:normal;font-variant-numeric:normal;font-variant-alternates:normal;font-feature-settings:normal;text-indent:0;text-align:start;text-decoration:none;text-decoration-line:none;text-decoration-style:solid;text-decoration-color:#000000;letter-spacing:normal;word-spacing:normal;text-transform:none;writing-mode:lr-tb;direction:ltr;text-orientation:mixed;dominant-baseline:auto;baseline-shift:baseline;text-anchor:start;white-space:normal;shape-padding:0;clip-rule:nonzero;display:inline;overflow:visible;visibility:visible;opacity:1;isolation:auto;mix-blend-mode:normal;color-interpolation:sRGB;color-interpolation-filters:linearRGB;solid-color:#000000;solid-opacity:1;vector-effect:none;fill:#000000;fill-opacity:1;fill-rule:nonzero;stroke:none;stroke-width:0.52916676;stroke-linecap:round;stroke-linejoin:miter;stroke-miterlimit:4;stroke-dasharray:none;stroke-dashoffset:0;stroke-opacity:1;color-rendering:auto;image-rendering:auto;shape-rendering:auto;text-rendering:auto;enable-background:accumulate" d="m 13.229166,271.86441 c -6.569234,0 -11.9067702,5.3344 -11.9067702,11.90449 0,6.5701 5.3375362,11.90833 11.9067702,11.90833 6.569233,0 11.906771,-5.33823 11.906771,-11.90833 0,-6.57009 -5.337538,-11.90449 -11.906771,-11.90449 z m 0,1.03565 c 6.009725,0 10.871233,4.85835 10.871233,10.86884 0,6.01051 -4.861508,10.87264 -10.871233,10.87264 -6.0097255,0 -10.8712326,-4.86213 -10.8712326,-10.87264 0,-6.01049 4.8615071,-10.86884 10.8712326,-10.86884 z"></path></g></svg>