<svg xmlns:x="http://ns.adobe.com/Extensibility/1.0/" xmlns:i="http://ns.adobe.com/AdobeIllustrator/10.0/" xmlns:graph="http://ns.adobe.com/Graphs/1.0/" xmlns="http://www.w3.org/2000/svg" xmlns:xlink="http://www.w3.org/1999/xlink" version="1.1" x="0px" y="0px" viewBox="0 0 100 100" enable-background="new 0 0 100 100" xml:space="preserve"><metadata><sfw xmlns="http://ns.adobe.com/SaveForWeb/1.0/"><slices></slices><sliceSourceBounds y="-8142" x="-8141" width="16383" height="16383" bottomLeftOrigin="true"></sliceSourceBounds></sfw></metadata><g><g><path d="M50,43.032L50,43.032C49.999,43.032,49.999,43.032,50,43.032c-11.594,0-21.792,3.292-30,11.5v2.707    c8.208,8.209,18.154,11.73,29.748,11.73c11.593,0,22.043-3.729,30.252-11.938v-2.5C71.792,46.323,61.594,43.032,50,43.032    L50,43.032z M21.815,56.119c5.726-5.326,12.7-8.862,20.241-10.325c-2.997,2.36-4.932,6.01-4.932,10.112    c0,4.285,2.111,8.076,5.341,10.418C34.782,64.967,27.66,61.469,21.815,56.119z M77.934,55.88    c-5.725,5.327-12.698,8.862-20.238,10.325c3.137-2.351,5.18-6.086,5.18-10.299c0-4.101-1.935-7.751-4.931-10.111    C65.374,47.234,72.257,50.684,77.934,55.88z M60.875,55.906c0,5.997-4.879,10.875-10.875,10.875    c-5.997,0-10.875-4.878-10.875-10.875c0-5.996,4.878-10.874,10.874-10.875H50C55.996,45.032,60.875,49.91,60.875,55.906z"></path><path d="M50.002,31.032c-14.425,0-27.994,5.625-38.209,15.839l1.414,1.414c9.837-9.836,22.904-15.253,36.795-15.253    c13.89,0,26.956,5.417,36.791,15.253l1.414-1.414C77.994,36.657,64.426,31.032,50.002,31.032z"></path><circle cx="50" cy="56.031" r="7.5"></circle></g></g></svg>